<svg width="25" height="24" viewBox="0 0 25 24" fill="none" xmlns="http://www.w3.org/2000/svg">
<path d="M22.7762 12.2331C22.7762 11.3698 22.7063 10.7398 22.5549 10.0864H12.7107V13.983H18.489C18.3725 14.9514 17.7435 16.4097 16.3454 17.3897L16.3258 17.5202L19.4384 19.9349L19.654 19.9564C21.6345 18.1247 22.7762 15.4297 22.7762 12.2331Z" fill="#4285F4"/>
<path d="M12.71 22.5001C15.5409 22.5001 17.9175 21.5667 19.6534 19.9567L16.3448 17.39C15.4594 18.0083 14.2711 18.44 12.71 18.44C9.93738 18.44 7.58412 16.6083 6.74525 14.0767L6.62229 14.0871L3.38583 16.5955L3.34351 16.7133C5.06767 20.1433 8.60924 22.5001 12.71 22.5001Z" fill="#F16C05"/>
<path d="M6.74595 14.0767C6.52461 13.4234 6.39651 12.7233 6.39651 12C6.39651 11.2767 6.52461 10.5767 6.7343 9.92337L6.72844 9.78423L3.45141 7.2356L3.34419 7.28667C2.63358 8.71002 2.22583 10.3084 2.22583 12C2.22583 13.6917 2.63358 15.29 3.34419 16.7133L6.74595 14.0767Z" fill="#F16C05"/>
<path d="M12.7101 5.55997C14.6789 5.55997 16.007 6.41163 16.7642 7.12335L19.7233 4.23C17.906 2.53834 15.541 1.5 12.7101 1.5C8.60927 1.5 5.06768 3.85665 3.34351 7.28662L6.73363 9.92332C7.58415 7.39166 9.93742 5.55997 12.7101 5.55997Z" fill="#F16C05"/>
</svg>
