<svg width="24" height="25" viewBox="0 0 24 25" fill="none" xmlns="http://www.w3.org/2000/svg">
<path d="M12.0749 12.9819C15.6463 12.9819 18.5658 10.0624 18.5658 6.49094C18.5658 2.91949 15.6463 0 12.0749 0C8.50342 0 5.58398 2.91949 5.58398 6.49094C5.58398 10.0624 8.50347 12.9819 12.0749 12.9819Z" fill="white"/>
<path d="M23.214 18.169C23.0439 17.7438 22.8172 17.347 22.5621 16.9785C21.2582 15.0511 19.2458 13.7756 16.9782 13.4638C16.6948 13.4355 16.383 13.4921 16.1562 13.6622C14.9657 14.5409 13.5485 14.9944 12.0746 14.9944C10.6006 14.9944 9.18339 14.5409 7.99291 13.6622C7.76613 13.4921 7.45433 13.4071 7.17091 13.4638C4.90334 13.7756 2.86254 15.0511 1.58704 16.9785C1.33194 17.347 1.10516 17.7722 0.935128 18.169C0.850113 18.3391 0.878433 18.5375 0.963448 18.7076C1.19023 19.1044 1.47365 19.5013 1.72875 19.8414C2.12556 20.38 2.55074 20.8618 3.03262 21.3153C3.42943 21.7121 3.88294 22.0806 4.3365 22.4491C6.5757 24.1214 9.26846 25.0001 12.0462 25.0001C14.824 25.0001 17.5168 24.1214 19.756 22.4491C20.2095 22.109 20.663 21.7121 21.0599 21.3153C21.5134 20.8618 21.9669 20.3799 22.3637 19.8414C22.6472 19.4729 22.9023 19.1044 23.129 18.7076C23.2707 18.5375 23.299 18.3391 23.214 18.169Z" fill="white"/>
</svg>
